<svg width="18" height="18" viewBox="0 0 18 18" fill="none" xmlns="http://www.w3.org/2000/svg">
<path fill-rule="evenodd" clip-rule="evenodd" d="M13.01 11.3671H12.22L11.94 11.0971C12.92 9.95706 13.51 8.47707 13.51 6.86707C13.51 3.27707 10.6 0.367065 7.01001 0.367065C3.42001 0.367065 0.51001 3.27707 0.51001 6.86707C0.51001 10.4571 3.42001 13.3671 7.01001 13.3671C8.62001 13.3671 10.1 12.7771 11.24 11.7971L11.51 12.0771V12.8671L16.51 17.8571L18 16.3671L13.01 11.3671ZM7.01001 11.3671C4.52001 11.3671 2.51001 9.35707 2.51001 6.86707C2.51001 4.37707 4.52001 2.36707 7.01001 2.36707C9.50001 2.36707 11.51 4.37707 11.51 6.86707C11.51 9.35707 9.50001 11.3671 7.01001 11.3671Z" fill="white"/>
</svg>
